<svg xmlns="http://www.w3.org/2000/svg" width="192" height="192" viewBox="0 0 512 512">
  <defs>
    <linearGradient id="bg" x1="0" y1="0" x2="1" y2="1">
      <stop offset="0%" stop-color="#1e3a8a"/>
      <stop offset="100%" stop-color="#0ea5e9"/>
    </linearGradient>
    <linearGradient id="cog" x1="0" y1="0" x2="1" y2="1">
      <stop offset="0%" stop-color="#fde68a"/>
      <stop offset="100%" stop-color="#f59e0b"/>
    </linearGradient>
  </defs>
  <rect width="512" height="512" rx="96" fill="url(#bg)"/>
  <g transform="translate(256 256)" fill="url(#cog)">
    <path d="M0-160 L24-150 L36-176 L72-160 L60-134 L80-118 L106-130 L130-94 L104-78 L114-52 L140-50 L140-10 L114 -8 L104 18 L130 34 L106 70 L80 58 L60 74 L72 100 L36 116 L24 90 L0 100 L-24 90 L-36 116 L-72 100 L-60 74 L-80 58 L-106 70 L-130 34 L-104 18 L-114 -8 L-140 -10 L-140-50 L-114 -52 L-104 -78 L-130 -94 L-106 -130 L-80 -118 L-60 -134 L-72 -160 L-36 -176 L-24 -150 Z"/>
    <circle r="44" fill="#0f172a"/>
    <text x="0" y="14" font-family="Inter, system-ui, sans-serif" font-weight="900" font-size="56" text-anchor="middle" fill="#fde68a">S</text>
  </g>
</svg>
